<?xml version="1.0" encoding="UTF-8"?>
<svg id="a"
 xmlns="http://www.w3.org/2000/svg"
 xmlns:xlink="http://www.w3.org/1999/xlink" viewBox="0 0 468 252">
 <defs>
  <style>.i,.j,.k{fill:none;}.l{fill:#032f70;}.m{fill:transparent;}.n{fill:#b51700;}.j{stroke:#032f70;stroke-width:12px;}.k{stroke:#b51700;stroke-width:12px;}.o{clip-path:url(#h);}.p{clip-path:url(#g);}.q{clip-path:url(#e);}.r{clip-path:url(#f);}.s{clip-path:url(#d);}.t{clip-path:url(#b);}.u{clip-path:url(#c);}</style>
  <clipPath id="b">
   <rect class="i" width="468" height="252"/>
  </clipPath>
  <clipPath id="c">
   <rect class="i" x="9.76" y="19.59" width="448.69" height="201.44" transform="translate(-4.06 8.24) rotate(-2)"/>
  </clipPath>
  <clipPath id="d">
   <rect class="i" width="468" height="252"/>
  </clipPath>
  <clipPath id="e">
   <rect class="i" x="133.28" y="-104.04" width="201.44" height="448.69" transform="translate(93.76 342.93) rotate(-85)"/>
  </clipPath>
  <clipPath id="f">
   <rect class="i" width="468" height="252"/>
  </clipPath>
  <clipPath id="g">
   <rect class="i" y="67.79" width="468" height="53"/>
  </clipPath>
  <clipPath id="h">
   <rect class="i" x="3.93" y="109.93" width="460.13" height="65.9"/>
  </clipPath>
 </defs>
 <g class="t">
  <rect class="m" width="468" height="252"/>
 </g>
 <g class="u">
  <g class="s">
   <ellipse class="k" cx="234.11" cy="120.31" rx="217.35" ry="93.72" transform="translate(-4.06 8.24) rotate(-2)"/>
  </g>
 </g>
 <g class="q">
  <g class="r">
   <ellipse class="j" cx="234" cy="120.31" rx="93.72" ry="217.35" transform="translate(93.76 342.93) rotate(-85)"/>
  </g>
 </g>
 <g class="p">
  <g>
   <path class="l" d="M83.28,115.68v-1.61c.68-.11,1.22-.26,1.62-.45,.4-.19,.7-.45,.89-.79s.32-.78,.37-1.31c.05-.53,.07-1.18,.07-1.97v-24.34h-1.98c-.98,0-1.73,.11-2.25,.34-.52,.23-.97,.59-1.35,1.07-.38,.49-.71,1.14-.99,1.96-.28,.82-.5,1.6-.68,2.33h-3.34v-8.57h28.74v8.57h-3.34c-.31-1.11-.55-1.92-.73-2.44-.18-.52-.38-.96-.6-1.33-.22-.37-.45-.67-.7-.92s-.5-.44-.78-.59c-.28-.15-.62-.26-1.04-.33-.42-.07-.96-.11-1.62-.11h-1.76v24.34c0,.86,.02,1.52,.07,1.97,.05,.45,.14,.81,.27,1.09,.13,.28,.29,.5,.48,.67,.19,.17,.45,.33,.78,.46,.33,.14,.79,.25,1.35,.33v1.61h-13.48Z"/>
   <path class="l" d="M135.48,109.18c.63,.98,1.17,1.75,1.6,2.33,.43,.58,.81,1.03,1.14,1.35,.33,.33,.65,.57,.96,.75,.32,.17,.74,.33,1.26,.48v1.59h-13.23v-1.61c.55-.08,.93-.22,1.12-.4,.2-.19,.29-.44,.29-.75,0-.26-.04-.52-.11-.77-.07-.25-.25-.62-.52-1.11-.28-.49-.84-1.38-1.68-2.69l-3.74-5.76c-.46-.7-.85-1.25-1.18-1.64-.33-.39-.67-.67-1-.84-.33-.17-.79-.26-1.38-.26h-.49v9.69c0,.57,.02,1.1,.05,1.59,.03,.49,.1,.89,.2,1.2,.1,.31,.24,.57,.43,.78,.19,.21,.44,.39,.77,.55,.33,.15,.72,.29,1.2,.4v1.61h-12.82v-1.61c.6-.16,1.08-.34,1.43-.53,.35-.19,.61-.45,.78-.78,.17-.33,.28-.76,.33-1.27,.05-.51,.07-1.16,.07-1.94v-21.04c0-.76-.02-1.41-.06-1.93-.04-.52-.15-.94-.32-1.27-.17-.33-.43-.59-.78-.79-.35-.2-.83-.39-1.45-.55v-1.61h12.82v1.61c-.68,.18-1.18,.38-1.5,.59-.32,.21-.55,.46-.71,.76-.15,.29-.26,.67-.33,1.12-.07,.46-.1,1.15-.1,2.08v8.69h.51c.75,0,1.34-.08,1.78-.24,.44-.16,.89-.46,1.35-.88,.46-.42,1.36-1.41,2.69-2.97,1.33-1.55,2.29-2.75,2.88-3.59,.59-.84,1-1.53,1.22-2.07,.22-.55,.33-1.09,.33-1.62,0-.57-.19-1.02-.57-1.34-.38-.33-.92-.5-1.62-.51v-1.61h12.48v1.66c-.62,.11-1.15,.29-1.59,.51-.44,.23-.94,.6-1.51,1.11-.57,.51-1.29,1.27-2.17,2.26l-7.32,8.2,8.52,13.09Z"/>
   <path class="l" d="M179.03,83.26v6.93h-3.34c-.37-1.37-.8-2.42-1.28-3.16-.48-.74-1.1-1.29-1.86-1.66-.76-.37-1.73-.55-2.92-.55-1.61,0-3.04,.49-4.27,1.48-1.24,.99-2.21,2.56-2.93,4.71-.72,2.16-1.07,4.89-1.07,8.19,0,2.85,.24,5.32,.72,7.41,.48,2.09,1.21,3.72,2.2,4.87,.98,1.16,2.2,1.73,3.65,1.73s2.49-.43,3.17-1.28c.68-.85,1.03-2.22,1.03-4.09v-.93c0-1.24-.04-2.12-.12-2.65-.08-.53-.21-.92-.38-1.18-.17-.26-.4-.47-.67-.63-.28-.16-.77-.35-1.46-.56v-1.61h12.5v1.61c-.81,.24-1.37,.52-1.66,.83-.29,.31-.49,.72-.6,1.23-.11,.51-.16,1.23-.16,2.16v9.2l-3.52,.73-1.66-1.76c-1.94,1.19-4.16,1.78-6.67,1.78-4.75,0-8.3-1.39-10.63-4.16-2.34-2.78-3.5-6.98-3.5-12.61,0-2.96,.42-5.57,1.25-7.81s1.98-4.07,3.45-5.48c1.47-1.41,3.13-2.43,4.98-3.08,1.85-.64,3.83-.96,5.94-.96,3.56,0,6.84,.43,9.81,1.29Z"/>
   <path class="l" d="M194.61,94.95l.32,.07c1.19-1.4,2.41-2.41,3.66-3.03,1.25-.62,2.61-.93,4.08-.93,.99,0,2.03,.11,3.12,.32v6.74h-4.42c-.28-.94-.64-1.67-1.09-2.17-.45-.5-1.05-.76-1.79-.76-.36,0-.75,.11-1.18,.33-.43,.22-.83,.53-1.2,.93-.37,.4-.63,.81-.78,1.22-.15,.42-.26,.83-.31,1.26-.05,.42-.07,1.06-.07,1.9v7.79c0,1.55,.06,2.63,.17,3.25,.11,.62,.34,1.1,.68,1.45,.34,.35,.92,.6,1.73,.74v1.61h-12.04v-1.61c.78-.21,1.32-.49,1.62-.83,.3-.34,.5-.81,.61-1.39,.11-.59,.16-1.65,.16-3.2v-10.03c0-1.2-.02-2.1-.06-2.67-.04-.58-.14-1.04-.29-1.39-.15-.35-.39-.63-.71-.85-.32-.22-.87-.41-1.65-.57v-1.66l6.69-.2h3.08l-.34,3.69Z"/>
   <path class="l" d="M230.67,111.23c-1.66,1.76-3.3,3-4.93,3.74-1.63,.73-3.5,1.1-5.62,1.1-3.79,0-6.65-1.04-8.56-3.11-1.91-2.07-2.87-5.15-2.87-9.24,0-2.64,.49-4.91,1.48-6.82,.98-1.91,2.38-3.36,4.19-4.35,1.81-.98,3.91-1.48,6.3-1.48,1.48,0,2.78,.17,3.89,.51,1.11,.34,2.07,.82,2.87,1.43,.8,.61,1.46,1.35,1.98,2.21,.62,1.03,1.08,2.2,1.39,3.52,.33,1.35,.5,2.99,.51,4.91h-15.48c.02,2.95,.54,5.11,1.57,6.51,1.03,1.39,2.61,2.09,4.72,2.09,1.24,0,2.35-.23,3.34-.7,.99-.46,2.07-1.28,3.22-2.45l1.98,2.15Zm-6.59-10.23c-.07-2.49-.39-4.35-.98-5.57s-1.53-1.83-2.83-1.83-2.25,.63-2.99,1.9c-.74,1.27-1.18,3.1-1.33,5.49h8.13Z"/>
   <path class="l" d="M257.21,111.23c-1.66,1.76-3.3,3-4.93,3.74-1.63,.73-3.5,1.1-5.62,1.1-3.79,0-6.65-1.04-8.56-3.11-1.91-2.07-2.87-5.15-2.87-9.24,0-2.64,.49-4.91,1.48-6.82,.98-1.91,2.38-3.36,4.19-4.35,1.81-.98,3.91-1.48,6.3-1.48,1.48,0,2.78,.17,3.89,.51s2.07,.82,2.87,1.43c.8,.61,1.46,1.35,1.98,2.21,.62,1.03,1.08,2.2,1.39,3.52,.33,1.35,.5,2.99,.51,4.91h-15.48c.02,2.95,.54,5.11,1.57,6.51,1.03,1.39,2.61,2.09,4.72,2.09,1.24,0,2.35-.23,3.34-.7,.99-.46,2.07-1.28,3.22-2.45l1.98,2.15Zm-6.59-10.23c-.07-2.49-.39-4.35-.98-5.57s-1.53-1.83-2.83-1.83-2.25,.63-2.99,1.9-1.18,3.1-1.33,5.49h8.13Z"/>
   <path class="l" d="M288.19,115.68h-11.84v-1.61c.75-.18,1.27-.44,1.56-.79,.29-.35,.49-.82,.6-1.42,.11-.59,.16-1.66,.16-3.21v-6.52c0-1.16-.02-2.1-.07-2.84-.05-.74-.13-1.35-.23-1.82-.11-.47-.25-.87-.44-1.18-.19-.32-.39-.58-.62-.78-.23-.2-.49-.35-.78-.45s-.67-.15-1.12-.15c-.62,0-1.26,.19-1.93,.57-.67,.38-1.23,.91-1.68,1.59-.46,.67-.68,1.4-.68,2.16v9.4c0,1.55,.05,2.62,.15,3.22,.1,.6,.3,1.08,.6,1.43,.3,.35,.83,.61,1.6,.79v1.61h-11.79v-1.61c.78-.21,1.32-.49,1.62-.83s.5-.81,.61-1.39,.16-1.65,.16-3.2v-10.03c0-1.2-.02-2.1-.06-2.67-.04-.58-.14-1.04-.29-1.39-.15-.35-.39-.63-.71-.85-.32-.22-.87-.41-1.65-.57v-1.66l6.69-.2h3.08l-.37,3.52,.29,.07c1.01-.89,1.9-1.6,2.66-2.11,.76-.51,1.57-.92,2.4-1.22,.84-.3,1.72-.45,2.65-.45,1.33,0,2.44,.19,3.32,.57,.88,.38,1.59,.94,2.14,1.67s.94,1.63,1.17,2.69c.24,1.06,.35,2.29,.35,3.69v8.94c0,.72,.01,1.39,.04,2.01,.02,.63,.09,1.13,.18,1.5,.1,.38,.23,.68,.4,.92,.17,.24,.41,.44,.72,.6,.31,.16,.68,.3,1.12,.42v1.61Z"/>
   <path class="l" d="M315.9,82.35v1.61c-.59,.16-1.05,.34-1.39,.52-.34,.19-.61,.44-.79,.77-.19,.33-.31,.74-.37,1.26-.06,.51-.08,1.16-.08,1.94v24.32h4.74c.94,0,1.7-.15,2.27-.44,.57-.29,1.06-.75,1.48-1.35,.42-.61,.77-1.41,1.07-2.39,.3-.99,.54-1.91,.72-2.77h3.34l-.54,9.86h-23.27v-1.61c.6-.16,1.08-.34,1.43-.54s.61-.46,.78-.79c.17-.33,.28-.76,.33-1.27,.05-.51,.07-1.16,.07-1.94v-21.02c0-.76-.02-1.41-.06-1.93-.04-.52-.15-.94-.32-1.27-.17-.33-.43-.59-.78-.79-.35-.2-.83-.39-1.45-.55v-1.61h12.82Z"/>
   <path class="l" d="M343.44,82.35v1.61c-.59,.16-1.05,.34-1.39,.52-.34,.19-.61,.44-.79,.77-.19,.33-.31,.74-.37,1.26-.06,.51-.08,1.16-.08,1.94v24.32h4.74c.94,0,1.7-.15,2.27-.44,.57-.29,1.06-.75,1.48-1.35,.42-.61,.77-1.41,1.07-2.39,.3-.99,.54-1.91,.72-2.77h3.34l-.54,9.86h-23.27v-1.61c.6-.16,1.08-.34,1.43-.54,.35-.2,.61-.46,.78-.79,.17-.33,.28-.76,.33-1.27,.05-.51,.07-1.16,.07-1.94v-21.02c0-.76-.02-1.41-.06-1.93-.04-.52-.15-.94-.32-1.27-.17-.33-.43-.59-.78-.79-.35-.2-.83-.39-1.45-.55v-1.61h12.82Z"/>
   <path class="l" d="M382.4,83.11v7.08h-3.32c-.39-1.84-1.01-3.19-1.86-4.06-.85-.87-1.95-1.31-3.32-1.31-2.57,0-4.52,1.23-5.83,3.7-1.32,2.46-1.98,6.12-1.98,10.97,0,4.51,.6,7.92,1.81,10.24,1.2,2.32,2.97,3.48,5.3,3.48,1.19,0,2.16-.2,2.91-.6,.75-.4,1.35-1,1.79-1.79,.45-.8,.83-1.92,1.16-3.37h3.34v7.4c-1.79,.42-3.43,.73-4.91,.93-1.48,.2-3.02,.29-4.61,.29-3.39,0-6.15-.61-8.29-1.83-2.14-1.22-3.72-3.06-4.74-5.53-1.02-2.46-1.53-5.59-1.53-9.36,0-3.53,.6-6.6,1.79-9.22,1.2-2.61,2.96-4.63,5.29-6.04,2.33-1.42,5.11-2.12,8.35-2.12,1.64,0,3.13,.09,4.47,.27,1.33,.18,2.73,.47,4.17,.88Z"/>
  </g>
 </g>
 <g class="o">
  <g>
   <path class="n" d="M77.69,144.98c-.06,.27-.1,.48-.12,.64-.02,.16-.04,.33-.05,.51-.02,.18-.02,.41-.02,.68,0,.44,.1,.76,.3,.96s.53,.34,.99,.4l-.22,1.03h-7.86l.22-1.03c.44-.12,.77-.3,1.01-.52s.43-.53,.6-.93c.17-.4,.33-.98,.5-1.74l1.31-5.97h-6.62l-1.31,5.97c-.06,.28-.1,.5-.12,.65-.02,.15-.04,.32-.05,.5-.02,.18-.02,.41-.02,.68,0,.44,.1,.76,.3,.96s.53,.34,.99,.4l-.22,1.03h-7.86l.22-1.03c.44-.12,.77-.3,1.01-.52s.43-.53,.6-.93c.17-.4,.33-.98,.5-1.74l2.84-12.89c.14-.61,.2-1.22,.2-1.83,0-.44-.1-.76-.3-.96s-.53-.34-.99-.4l.22-1.03h7.86l-.22,1.03c-.44,.12-.77,.3-1.01,.52s-.44,.53-.6,.93c-.17,.4-.33,.98-.5,1.74l-1.09,4.95h6.62l1.09-4.95c.14-.61,.2-1.22,.2-1.83,0-.44-.1-.76-.3-.96s-.53-.34-.99-.4l.22-1.03h7.86l-.22,1.03c-.44,.12-.77,.3-1.01,.52s-.44,.53-.6,.93c-.17,.4-.33,.98-.5,1.74l-2.84,12.89Z"/>
   <path class="n" d="M88.44,149.45c-1.15,0-2.15-.21-3.02-.62-.87-.41-1.55-1.04-2.05-1.88-.5-.84-.74-1.86-.74-3.07,0-.46,.03-.97,.09-1.53,.08-.71,.23-1.43,.44-2.17,.24-.85,.54-1.61,.91-2.28,.4-.75,.85-1.4,1.38-1.95,.52-.55,1.09-1,1.7-1.36s1.27-.63,1.99-.82c.85-.22,1.75-.33,2.69-.33,1.29,0,2.38,.24,3.25,.71,.88,.47,1.52,1.13,1.95,1.98s.63,1.82,.63,2.94c0,1.38-.23,2.76-.69,4.14-.46,1.39-1.09,2.55-1.9,3.48-.81,.94-1.76,1.63-2.87,2.08-1.1,.45-2.35,.67-3.75,.67Zm-1.61-4.55c0,.98,.16,1.71,.48,2.2,.32,.48,.82,.73,1.51,.73,.39,0,.75-.08,1.1-.24,.35-.16,.69-.44,1.03-.83,.34-.39,.64-.88,.91-1.48,.27-.6,.53-1.34,.77-2.22,.24-.88,.43-1.74,.57-2.59,.14-.84,.2-1.63,.2-2.36,0-1.04-.16-1.81-.48-2.3-.32-.49-.81-.73-1.48-.73-.88,0-1.63,.42-2.27,1.27-.64,.85-1.19,2.16-1.66,3.94-.46,1.78-.7,3.32-.7,4.62Z"/>
   <path class="n" d="M115.7,136.68c.89-1.12,1.77-1.95,2.66-2.46,.89-.52,1.88-.77,2.98-.77s1.91,.3,2.51,.9c.6,.6,.9,1.42,.9,2.48,0,.68-.1,1.48-.31,2.42l-1.28,5.78c-.1,.48-.17,.85-.21,1.11-.04,.26-.05,.48-.05,.67,0,.47,.12,.8,.35,.98s.64,.31,1.21,.38l-.19,1.03h-6.48l2.16-9.39c.11-.49,.2-.89,.26-1.2,.06-.31,.1-.58,.12-.81,.03-.23,.04-.44,.04-.62,0-.47-.1-.83-.29-1.07-.19-.24-.48-.37-.87-.37-.31,0-.67,.13-1.08,.4s-.85,.66-1.32,1.18c-.47,.52-.86,1.08-1.15,1.66-.29,.59-.53,1.33-.7,2.21l-1.72,8.02h-4.5l2.25-9.8c.1-.42,.18-.75,.22-1,.04-.25,.07-.46,.09-.64,.02-.18,.02-.34,.02-.48,0-.54-.09-.93-.28-1.18-.19-.24-.48-.37-.89-.37-.49,0-1.08,.32-1.76,.95-.68,.64-1.21,1.28-1.59,1.95-.38,.66-.67,1.51-.88,2.55l-1.72,8.02h-4.48l2.45-11.03c.05-.25,.12-.61,.21-1.07,.09-.46,.13-.85,.13-1.16,0-.44-.12-.74-.37-.9-.25-.16-.63-.26-1.15-.3l.23-1.03,4.3-.17h1.64l-.89,3.38,.19,.06c.73-.9,1.4-1.6,2.01-2.1,.61-.5,1.22-.87,1.82-1.09,.6-.22,1.28-.33,2.02-.33,1.04,0,1.86,.29,2.46,.86,.6,.57,.91,1.37,.95,2.38Z"/>
   <path class="n" d="M140.66,145.95c-1.05,1.19-2.19,2.07-3.4,2.64-1.21,.57-2.53,.86-3.95,.86-1.22,0-2.26-.21-3.11-.64-.85-.43-1.5-1.06-1.93-1.9-.43-.84-.65-1.84-.65-3.01,0-.54,.07-1.23,.22-2.08,.2-1.15,.5-2.17,.91-3.06,.51-1.1,1.18-2.05,2-2.84,.82-.79,1.79-1.4,2.9-1.83,1.11-.43,2.33-.64,3.65-.64,1.56,0,2.75,.28,3.56,.85,.81,.57,1.22,1.44,1.22,2.6,0,.79-.16,1.49-.48,2.09-.32,.6-.85,1.15-1.59,1.64-.74,.49-1.78,.89-3.13,1.19-1.35,.3-2.98,.47-4.88,.52-.14,.62-.2,1.25-.2,1.91,0,.39,.04,.75,.11,1.1,.07,.35,.2,.66,.39,.93,.19,.27,.44,.49,.75,.65,.31,.16,.71,.24,1.2,.24,.92,0,1.74-.18,2.48-.55,.74-.37,1.61-1.03,2.61-1.98l1.31,1.31Zm-8.28-5.25c1.92-.05,3.38-.42,4.4-1.1,1.02-.68,1.52-1.65,1.52-2.9,0-.53-.12-.93-.37-1.21-.25-.28-.59-.41-1.02-.41-.97,0-1.84,.48-2.62,1.44-.78,.96-1.41,2.35-1.91,4.19Z"/>
   <path class="n" d="M157.39,149.2h-7.86l.22-1.03c.44-.12,.77-.3,1.01-.52s.43-.53,.6-.93c.17-.4,.33-.98,.5-1.74l2.84-12.89c.14-.61,.2-1.22,.2-1.83,0-.44-.1-.76-.3-.96s-.53-.34-.99-.4l.22-1.03h7.86l-.22,1.03c-.44,.12-.77,.3-1.01,.52s-.44,.53-.6,.93c-.17,.4-.33,.98-.5,1.74l-2.84,12.89c-.06,.27-.1,.48-.12,.64-.02,.16-.04,.33-.05,.51-.02,.18-.02,.41-.02,.68,0,.44,.1,.76,.3,.96s.53,.34,.99,.4l-.22,1.03Z"/>
   <path class="n" d="M176.92,149.2h-6.48l1.95-8.5c.28-1.21,.45-2.04,.52-2.5,.06-.46,.09-.82,.09-1.08,0-.47-.1-.82-.3-1.05-.2-.23-.48-.34-.86-.34-.33,0-.7,.12-1.09,.38-.4,.25-.84,.64-1.33,1.17-.49,.53-.88,1.09-1.17,1.69-.29,.59-.53,1.33-.7,2.22l-1.72,8.02h-4.48l2.45-11.03c.05-.25,.12-.61,.21-1.07,.09-.46,.13-.85,.13-1.16,0-.44-.12-.74-.37-.9-.25-.16-.63-.26-1.15-.3l.23-1.03,4.3-.17h1.64l-.89,3.38,.19,.06c.72-.88,1.39-1.58,2-2.09,.61-.5,1.23-.87,1.84-1.09,.61-.22,1.28-.34,2.02-.34,1.07,0,1.92,.3,2.53,.9,.61,.6,.92,1.42,.92,2.48,0,.68-.1,1.48-.31,2.42l-1.28,5.78c-.1,.48-.17,.85-.21,1.11-.04,.26-.05,.48-.05,.67,0,.47,.12,.8,.35,.98s.64,.31,1.21,.38l-.19,1.03Z"/>
   <path class="n" d="M181.89,144.82c.05,.75,.21,1.35,.46,1.8,.25,.45,.57,.77,.95,.94s.81,.26,1.31,.26c.82,0,1.46-.2,1.91-.6,.45-.4,.67-.97,.67-1.7,0-.44-.07-.81-.22-1.11-.15-.3-.39-.6-.72-.88-.33-.29-.88-.66-1.62-1.12-1.04-.62-1.8-1.27-2.27-1.95-.47-.67-.71-1.42-.71-2.26,0-1.53,.57-2.71,1.72-3.53,1.15-.82,2.75-1.23,4.81-1.23,.8,0,1.66,.07,2.59,.2,.92,.13,1.76,.3,2.52,.52l-.81,3.73h-1.98c-.09-.97-.34-1.68-.74-2.14-.4-.46-.98-.69-1.73-.69-.7,0-1.26,.18-1.68,.54s-.63,.85-.63,1.46c0,.39,.08,.72,.24,1.02,.16,.29,.42,.58,.77,.88,.35,.29,.88,.65,1.58,1.06,1.1,.66,1.9,1.33,2.38,2.03,.48,.7,.72,1.52,.72,2.45,0,1.06-.28,1.97-.85,2.72-.57,.75-1.34,1.31-2.33,1.67s-2.11,.55-3.37,.55c-1.11,0-2.15-.07-3.11-.2-.96-.13-1.86-.32-2.7-.55l.88-3.88h1.98Z"/>
   <path class="n" d="M196.66,138.31c.25-1.12,.38-1.91,.38-2.34s-.11-.73-.33-.9-.61-.28-1.19-.34l.23-1.03,4.23-.17h1.7l-.89,3.38,.19,.06c.71-.91,1.36-1.61,1.97-2.12,.6-.5,1.2-.86,1.8-1.08,.59-.21,1.28-.32,2.05-.32,.73,0,1.37,.17,1.92,.52,.55,.34,.99,.89,1.31,1.63,.32,.75,.48,1.69,.48,2.84s-.13,2.2-.38,3.31c-.26,1.12-.63,2.15-1.12,3.12-.5,.96-1.12,1.79-1.88,2.48-.76,.69-1.62,1.21-2.59,1.57-.96,.36-2.01,.54-3.15,.54-.93,0-1.82-.16-2.69-.48l-.7,3.3c-.03,.17-.06,.33-.09,.48-.03,.15-.04,.29-.05,.42-.01,.13-.02,.25-.02,.37,0,.45,.12,.77,.35,.97,.23,.2,.64,.33,1.21,.39l-.17,1.03h-6.5l3.92-17.61Zm3.12,5.11c-.17,.77-.25,1.53-.25,2.27s.13,1.31,.38,1.64c.25,.33,.68,.5,1.29,.5,.39,0,.74-.06,1.07-.19s.65-.33,.97-.62c.32-.29,.64-.71,.96-1.26,.41-.69,.76-1.47,1.07-2.34,.31-.88,.55-1.79,.73-2.76,.18-.96,.27-1.85,.27-2.65s-.11-1.34-.34-1.71c-.22-.37-.57-.55-1.04-.55-.69,0-1.39,.34-2.1,1.01-.71,.67-1.28,1.45-1.71,2.34-.43,.89-.82,2.14-1.17,3.75l-.12,.58Z"/>
   <path class="n" d="M225.75,145.95c-1.05,1.19-2.19,2.07-3.4,2.64-1.21,.57-2.53,.86-3.95,.86-1.22,0-2.26-.21-3.11-.64-.85-.43-1.5-1.06-1.93-1.9-.43-.84-.65-1.84-.65-3.01,0-.54,.07-1.23,.22-2.08,.2-1.15,.5-2.17,.91-3.06,.51-1.1,1.18-2.05,2-2.84,.82-.79,1.79-1.4,2.9-1.83,1.11-.43,2.33-.64,3.65-.64,1.56,0,2.75,.28,3.56,.85,.81,.57,1.22,1.44,1.22,2.6,0,.79-.16,1.49-.48,2.09-.32,.6-.85,1.15-1.59,1.64-.74,.49-1.78,.89-3.13,1.19-1.35,.3-2.98,.47-4.88,.52-.14,.62-.2,1.25-.2,1.91,0,.39,.04,.75,.11,1.1,.07,.35,.2,.66,.39,.93,.19,.27,.44,.49,.75,.65,.31,.16,.71,.24,1.2,.24,.92,0,1.74-.18,2.48-.55,.74-.37,1.61-1.03,2.61-1.98l1.31,1.31Zm-8.28-5.25c1.92-.05,3.38-.42,4.4-1.1,1.02-.68,1.52-1.65,1.52-2.9,0-.53-.12-.93-.37-1.21-.25-.28-.59-.41-1.02-.41-.97,0-1.84,.48-2.62,1.44-.78,.96-1.41,2.35-1.91,4.19Z"/>
   <path class="n" d="M239.34,145.06l1.27,1.36c-1.09,1.09-2.19,1.87-3.28,2.34s-2.3,.7-3.61,.7c-1.07,0-1.99-.23-2.75-.69-.76-.46-1.33-1.11-1.71-1.96-.38-.85-.57-1.85-.57-2.99,0-.91,.11-1.81,.33-2.7,.16-.66,.36-1.3,.61-1.94,.33-.84,.72-1.58,1.17-2.2,.53-.73,1.17-1.36,1.91-1.89,.74-.53,1.58-.93,2.52-1.21,.93-.28,1.93-.41,3.01-.41,.7,0,1.45,.05,2.27,.16s1.53,.26,2.16,.46l-.88,3.81h-2.81c.02-.22,.03-.44,.03-.67,0-.75-.12-1.29-.34-1.63-.23-.34-.57-.51-1.02-.51-.77,0-1.51,.44-2.2,1.33-.7,.89-1.28,2.12-1.75,3.69-.47,1.57-.7,2.95-.7,4.14,0,1.96,.71,2.94,2.14,2.94,.72,0,1.4-.16,2.04-.48,.64-.32,1.37-.86,2.18-1.62Z"/>
   <path class="n" d="M253.39,146.35c-.74,.8-1.4,1.42-1.98,1.84-.58,.43-1.19,.74-1.83,.95-.64,.2-1.37,.3-2.2,.3s-1.54-.15-2.1-.46c-.56-.31-.96-.72-1.21-1.23s-.38-1.1-.38-1.74c0-.49,.04-.96,.11-1.4,.07-.44,.22-1.17,.45-2.18l1.61-6.78h-2.11l.22-1.03c.65-.04,1.15-.15,1.52-.32,.36-.17,.67-.42,.93-.76,.25-.33,.5-.79,.73-1.38,.23-.58,.48-1.38,.77-2.38h3.75l-.91,3.91h3.8l-.42,1.95h-3.83l-1.73,7.14c-.07,.31-.14,.62-.2,.92-.06,.3-.12,.59-.16,.87-.04,.28-.07,.51-.09,.69-.02,.18-.02,.35-.02,.49,0,.49,.09,.85,.27,1.07,.18,.22,.44,.34,.78,.34,.47,0,.95-.17,1.45-.5,.49-.33,1.03-.85,1.6-1.55l1.2,1.23Z"/>
   <path class="n" d="M259.95,145.02c-.12,.52-.19,.91-.22,1.16s-.05,.46-.05,.62c0,.45,.12,.77,.35,.97,.23,.2,.64,.33,1.21,.39l-.17,1.03h-6.5l2.44-10.91c.13-.62,.23-1.11,.28-1.46,.05-.35,.08-.64,.08-.88,0-.41-.1-.7-.29-.87-.19-.17-.6-.29-1.21-.35l.23-1.03,4.58-.17h1.78l-2.52,11.5Zm3.61-17.56l-.81,3.83h-4.05l.86-3.83h4Z"/>
   <path class="n" d="M270.27,149.45c-1.15,0-2.15-.21-3.02-.62-.87-.41-1.55-1.04-2.05-1.88-.5-.84-.74-1.86-.74-3.07,0-.46,.03-.97,.09-1.53,.08-.71,.23-1.43,.44-2.17,.24-.85,.54-1.61,.91-2.28,.4-.75,.85-1.4,1.38-1.95,.52-.55,1.09-1,1.7-1.36s1.27-.63,1.99-.82c.85-.22,1.75-.33,2.69-.33,1.29,0,2.38,.24,3.25,.71,.88,.47,1.52,1.13,1.95,1.98s.63,1.82,.63,2.94c0,1.38-.23,2.76-.69,4.14-.46,1.39-1.09,2.55-1.9,3.48-.81,.94-1.76,1.63-2.87,2.08-1.1,.45-2.35,.67-3.75,.67Zm-1.61-4.55c0,.98,.16,1.71,.48,2.2,.32,.48,.82,.73,1.51,.73,.38,0,.75-.08,1.1-.24,.35-.16,.69-.44,1.03-.83,.34-.39,.64-.88,.91-1.48,.27-.6,.53-1.34,.77-2.22,.24-.88,.43-1.74,.57-2.59,.13-.84,.2-1.63,.2-2.36,0-1.04-.16-1.81-.48-2.3-.32-.49-.81-.73-1.48-.73-.88,0-1.63,.42-2.27,1.27-.64,.85-1.19,2.16-1.66,3.94-.46,1.78-.7,3.32-.7,4.62Z"/>
   <path class="n" d="M297.11,149.2h-6.48l1.95-8.5c.28-1.21,.45-2.04,.52-2.5,.06-.46,.09-.82,.09-1.08,0-.47-.1-.82-.3-1.05-.2-.23-.48-.34-.86-.34-.33,0-.7,.12-1.09,.38-.4,.25-.84,.64-1.33,1.17-.49,.53-.88,1.09-1.17,1.69-.29,.59-.53,1.33-.7,2.22l-1.72,8.02h-4.48l2.45-11.03c.05-.25,.12-.61,.21-1.07,.09-.46,.13-.85,.13-1.16,0-.44-.12-.74-.37-.9-.25-.16-.63-.26-1.15-.3l.23-1.03,4.3-.17h1.64l-.89,3.38,.19,.06c.72-.88,1.38-1.58,2-2.09,.61-.5,1.23-.87,1.84-1.09,.61-.22,1.28-.34,2.02-.34,1.07,0,1.92,.3,2.53,.9,.61,.6,.92,1.42,.92,2.48,0,.68-.1,1.48-.31,2.42l-1.28,5.78c-.1,.48-.17,.85-.21,1.11-.04,.26-.05,.48-.05,.67,0,.47,.12,.8,.35,.98s.64,.31,1.21,.38l-.19,1.03Z"/>
   <path class="n" d="M324.69,144.98c-.06,.27-.1,.48-.12,.64-.02,.16-.04,.33-.05,.51-.02,.18-.02,.41-.02,.68,0,.44,.1,.76,.3,.96s.53,.34,.99,.4l-.22,1.03h-7.86l.22-1.03c.44-.12,.77-.3,1.01-.52s.43-.53,.6-.93c.17-.4,.33-.98,.5-1.74l1.31-5.97h-6.62l-1.31,5.97c-.06,.28-.1,.5-.12,.65-.02,.15-.04,.32-.05,.5-.02,.18-.02,.41-.02,.68,0,.44,.1,.76,.3,.96s.53,.34,.99,.4l-.22,1.03h-7.86l.22-1.03c.44-.12,.77-.3,1.01-.52s.43-.53,.6-.93c.17-.4,.33-.98,.5-1.74l2.84-12.89c.13-.61,.2-1.22,.2-1.83,0-.44-.1-.76-.3-.96s-.53-.34-.99-.4l.22-1.03h7.86l-.22,1.03c-.44,.12-.77,.3-1.01,.52s-.44,.53-.6,.93c-.17,.4-.33,.98-.5,1.74l-1.09,4.95h6.62l1.09-4.95c.13-.61,.2-1.22,.2-1.83,0-.44-.1-.76-.3-.96s-.53-.34-.99-.4l.22-1.03h7.86l-.22,1.03c-.44,.12-.77,.3-1.01,.52s-.44,.53-.6,.93c-.17,.4-.33,.98-.5,1.74l-2.84,12.89Z"/>
   <path class="n" d="M342.69,134.57l1.41-1.12,1.75,.25-2.41,10.89c-.12,.55-.22,1-.27,1.33-.06,.33-.09,.62-.09,.84,0,.47,.11,.81,.34,1.02,.23,.21,.63,.34,1.22,.39l-.17,1.03h-6l.84-3.2-.2-.06c-.71,.92-1.37,1.63-1.98,2.13-.61,.51-1.21,.86-1.8,1.07-.59,.21-1.27,.31-2.04,.31-.73,0-1.37-.17-1.92-.52-.55-.34-.99-.89-1.31-1.63-.32-.74-.48-1.69-.48-2.84s.13-2.2,.38-3.31c.25-1.11,.63-2.15,1.13-3.12,.5-.96,1.13-1.79,1.89-2.48,.76-.69,1.62-1.21,2.59-1.57,.96-.36,2.01-.54,3.15-.54,1.55,0,2.88,.38,3.97,1.12Zm-2.36,4.91c.07-.33,.13-.71,.18-1.12,.05-.41,.07-.81,.07-1.2,0-.69-.13-1.21-.39-1.56-.26-.35-.69-.53-1.28-.53-.97,0-1.83,.49-2.58,1.46-.75,.97-1.35,2.28-1.81,3.93-.46,1.65-.69,3.12-.69,4.42,0,.76,.11,1.33,.34,1.7,.22,.38,.57,.56,1.04,.56,.69,0,1.39-.34,2.1-1.01,.71-.67,1.29-1.46,1.73-2.37s.83-2.15,1.17-3.72l.12-.58Z"/>
   <path class="n" d="M371.36,133.7l.55,1.03c-.49,1.41-1.56,3.46-3.21,6.15-1.65,2.69-3.61,5.54-5.88,8.55h-2.64l-.48-4.62c-.14-1.25-.22-2.19-.27-2.83-.04-.63-.06-1.14-.06-1.52h-.16c-.58,1.22-1.34,2.59-2.27,4.12-.93,1.53-2,3.15-3.22,4.84h-2.84l-1.23-12.02c-.07-.73-.16-1.27-.27-1.62-.11-.35-.27-.61-.47-.77-.2-.17-.5-.27-.9-.3l.23-1.03h5.45l.86,11.34c1.2-1.86,2.08-3.34,2.63-4.44,.56-1.09,.97-2.1,1.24-3.01,.27-.91,.46-1.87,.56-2.87l.22-1.03h3.52l.97,11.36c1.51-2.28,2.61-4.13,3.29-5.56,.68-1.43,1.02-2.6,1.02-3.53,0-.4-.09-.7-.28-.9s-.52-.31-.98-.34l.22-1.03h4.41Z"/>
   <path class="n" d="M385.66,134.57l1.41-1.12,1.75,.25-2.41,10.89c-.12,.55-.22,1-.27,1.33-.06,.33-.09,.62-.09,.84,0,.47,.11,.81,.34,1.02,.23,.21,.63,.34,1.22,.39l-.17,1.03h-6l.84-3.2-.2-.06c-.71,.92-1.37,1.63-1.98,2.13-.61,.51-1.21,.86-1.8,1.07-.59,.21-1.27,.31-2.04,.31-.73,0-1.37-.17-1.92-.52-.55-.34-.99-.89-1.31-1.63-.32-.74-.48-1.69-.48-2.84s.13-2.2,.38-3.31c.25-1.11,.63-2.15,1.13-3.12,.5-.96,1.13-1.79,1.89-2.48,.76-.69,1.62-1.21,2.59-1.57,.96-.36,2.01-.54,3.15-.54,1.55,0,2.88,.38,3.97,1.12Zm-2.36,4.91c.07-.33,.13-.71,.18-1.12,.05-.41,.07-.81,.07-1.2,0-.69-.13-1.21-.39-1.56-.26-.35-.69-.53-1.28-.53-.97,0-1.83,.49-2.58,1.46-.75,.97-1.35,2.28-1.81,3.93-.46,1.65-.69,3.12-.69,4.42,0,.76,.11,1.33,.34,1.7,.22,.38,.57,.56,1.04,.56,.69,0,1.39-.34,2.1-1.01,.71-.67,1.29-1.46,1.73-2.37s.83-2.15,1.17-3.72l.12-.58Z"/>
   <path class="n" d="M396,145.02c-.12,.52-.19,.91-.22,1.16s-.05,.46-.05,.62c0,.45,.12,.77,.35,.97,.23,.2,.64,.33,1.21,.39l-.17,1.03h-6.5l2.44-10.91c.13-.62,.23-1.11,.28-1.46,.05-.35,.08-.64,.08-.88,0-.41-.1-.7-.29-.87-.19-.17-.6-.29-1.21-.35l.23-1.03,4.58-.17h1.78l-2.52,11.5Zm3.61-17.56l-.81,3.83h-4.05l.86-3.83h4Z"/>
   <path class="n" d="M405.67,145.02c-.12,.52-.19,.91-.22,1.16s-.05,.46-.05,.62c0,.45,.12,.77,.35,.97,.23,.2,.64,.33,1.21,.39l-.17,1.03h-6.5l2.44-10.91c.13-.62,.23-1.11,.28-1.46,.05-.35,.08-.64,.08-.88,0-.41-.1-.7-.29-.87-.19-.17-.6-.29-1.21-.35l.23-1.03,4.58-.17h1.78l-2.52,11.5Zm3.61-17.56l-.81,3.83h-4.05l.86-3.83h4Z"/>
  </g>
 </g>
</svg>