<?xml version="1.0" encoding="UTF-8"?><svg id="a" xmlns="http://www.w3.org/2000/svg" viewBox="0 0 355.18 218.53"><defs><style>.b{fill:#231f20;}.c{stroke:#283995;}.c,.d{fill:none;stroke-miterlimit:10;stroke-width:10px;}.d{stroke:#b82925;}</style></defs><ellipse class="c" cx="177.59" cy="109.27" rx="102.85" ry="173.42" transform="translate(47.49 272.22) rotate(-83)"/><ellipse class="d" cx="177.59" cy="109.27" rx="173.42" ry="102.85" transform="translate(-11.99 22.46) rotate(-7)"/><g><path class="b" d="M104.07,93.54l-3.13,.11c-.12-2.71-.55-4.63-1.28-5.76-.73-1.13-1.79-1.69-3.19-1.69h-2.45v18.47c0,1.1,1.08,1.66,3.24,1.66v2.95h-13.79v-2.95c2.14,0,3.2-.55,3.2-1.66v-18.47h-2.48c-1.39,0-2.45,.56-3.17,1.69-.72,1.13-1.15,3.05-1.3,5.76l-3.13-.11v-11.02h27.47v11.02Z"/><path class="b" d="M148.92,85.47c-.84,.02-1.69,.19-2.54,.49-.85,.3-1.61,.73-2.29,1.28l-5.15,4.21,8.39,13.03c.43,.67,.88,1.15,1.33,1.42,.46,.28,1.09,.41,1.91,.41h.79v2.95h-14.87v-2.95h1.62c.84,0,1.26-.29,1.26-.86,0-.24-.11-.56-.32-.97l-5.26-8.82-4.18,3.53v5.47c0,1.1,1.07,1.66,3.2,1.66v2.95h-13.72v-2.95c2.14,0,3.2-.55,3.2-1.66v-17.53c0-1.1-1.07-1.66-3.2-1.66v-2.95h13.72v2.95c-2.14,0-3.2,.55-3.2,1.66v7.7l8.39-7.02c.38-.31,.58-.7,.58-1.15,0-.34-.12-.62-.36-.85-.24-.23-.6-.34-1.08-.34h-.97v-2.95h12.74v2.95Z"/><path class="b" d="M191.55,91.3l-3.64,.32c-.36-1.87-1.1-3.33-2.21-4.37-1.12-1.04-2.59-1.57-4.41-1.57-2.69,0-4.61,.89-5.76,2.66-1.15,1.78-1.73,4.27-1.73,7.49,0,2.04,.17,3.7,.5,4.99,.34,1.28,.82,2.29,1.46,3.01,.64,.72,1.4,1.21,2.29,1.48,.89,.26,1.87,.4,2.95,.4,.79,0,1.54-.09,2.25-.27s1.34-.43,1.89-.76c.55-.32,.99-.72,1.31-1.19,.32-.47,.49-1,.49-1.6v-1.73c0-1.1-1.08-1.66-3.24-1.66v-2.95h11.84v2.95c-2.16,0-3.24,.55-3.24,1.66v9.11h-4.46l-.76-2.23c-.26,.34-.63,.67-1.1,1.01-.47,.34-1.04,.64-1.73,.9-.68,.26-1.48,.48-2.38,.65-.9,.17-1.9,.25-3.01,.25-1.58,0-3.13-.24-4.64-.72-1.51-.48-2.86-1.27-4.05-2.36-1.19-1.09-2.14-2.53-2.86-4.32-.72-1.79-1.08-3.98-1.08-6.57s.35-4.58,1.06-6.34c.71-1.75,1.66-3.19,2.86-4.32,1.2-1.13,2.59-1.96,4.18-2.48,1.58-.53,3.24-.79,4.97-.79,1.87,0,3.47,.22,4.79,.67,1.32,.44,2.36,1.03,3.13,1.75l.79-1.84h3.53v8.78Z"/><path class="b" d="M207.6,94.29c.62-1.37,1.42-2.36,2.38-2.99s2.02-.94,3.17-.94c.58,0,1.16,.09,1.76,.29,.6,.19,1.13,.47,1.6,.84,.47,.37,.85,.84,1.15,1.41,.3,.57,.45,1.24,.45,2.01,0,1.15-.29,2.09-.86,2.81-.58,.72-1.37,1.08-2.38,1.08-.94,0-1.66-.24-2.16-.72-.5-.48-.76-1.09-.76-1.84,0-.6,.18-1.14,.54-1.62,.36-.48,.96-.74,1.8-.79-.22-.34-.49-.58-.83-.74-.34-.16-.7-.23-1.08-.23-.48,0-.96,.14-1.44,.41-.48,.28-.94,.66-1.37,1.15-.43,.49-.82,1.08-1.17,1.76-.35,.68-.62,1.42-.81,2.21v6.32c0,.55,.32,.96,.95,1.22,.64,.26,1.47,.39,2.5,.39v2.95h-13.1v-2.95c2.04,0,3.06-.54,3.06-1.62v-9.26c0-1.08-1.01-1.62-3.02-1.62v-2.88h9.61v3.35Z"/><path class="b" d="M227.58,100.16c.05,2.18,.42,3.82,1.12,4.91,.7,1.09,1.8,1.64,3.31,1.64,1.15,0,2.19-.31,3.11-.92,.92-.61,1.54-1.54,1.85-2.79l3.02,.32c-.17,.84-.46,1.65-.88,2.43s-.98,1.48-1.67,2.09c-.7,.61-1.54,1.1-2.54,1.48-1,.37-2.14,.56-3.44,.56-1.37,0-2.68-.16-3.94-.47s-2.37-.85-3.33-1.6-1.72-1.76-2.29-3.01c-.56-1.25-.85-2.82-.85-4.72,0-1.51,.22-2.87,.67-4.09,.44-1.21,1.1-2.25,1.96-3.11,.86-.86,1.92-1.52,3.17-1.98,1.25-.46,2.69-.68,4.32-.68,3.22,0,5.6,.79,7.15,2.38,1.55,1.58,2.32,4.1,2.32,7.56h-13.07Zm7.56-2.48c0-.6-.07-1.2-.22-1.8-.14-.6-.36-1.13-.65-1.6-.29-.47-.66-.85-1.12-1.13s-1.01-.43-1.66-.43c-1.08,0-1.96,.4-2.63,1.19-.67,.79-1.08,2.05-1.22,3.78h7.49Z"/><path class="b" d="M250.12,100.16c.05,2.18,.42,3.82,1.12,4.91,.7,1.09,1.8,1.64,3.31,1.64,1.15,0,2.19-.31,3.11-.92,.92-.61,1.54-1.54,1.85-2.79l3.02,.32c-.17,.84-.46,1.65-.88,2.43s-.98,1.48-1.67,2.09c-.7,.61-1.54,1.1-2.54,1.48-1,.37-2.14,.56-3.44,.56-1.37,0-2.68-.16-3.94-.47s-2.37-.85-3.33-1.6-1.72-1.76-2.29-3.01c-.56-1.25-.85-2.82-.85-4.72,0-1.51,.22-2.87,.67-4.09,.44-1.21,1.1-2.25,1.96-3.11,.86-.86,1.92-1.52,3.17-1.98,1.25-.46,2.69-.68,4.32-.68,3.22,0,5.6,.79,7.15,2.38,1.55,1.58,2.32,4.1,2.32,7.56h-13.07Zm7.56-2.48c0-.6-.07-1.2-.22-1.8-.14-.6-.36-1.13-.65-1.6-.29-.47-.66-.85-1.12-1.13s-1.01-.43-1.66-.43c-1.08,0-1.96,.4-2.63,1.19-.67,.79-1.08,2.05-1.22,3.78h7.49Z"/><path class="b" d="M289.29,104.7c0,1.08,1.03,1.62,3.1,1.62v2.95h-11.74v-2.95c1.37,0,2.05-.54,2.05-1.61v-5.67c0-1.51-.2-2.61-.61-3.3-.41-.69-.98-1.04-1.73-1.04-1.01,0-1.94,.4-2.81,1.18-.86,.79-1.5,1.87-1.91,3.23v5.6c0,1.08,.67,1.61,2.02,1.61v2.95h-11.66v-2.95c2.04,0,3.06-.54,3.06-1.62v-9.26c0-1.08-1.01-1.62-3.02-1.62v-2.88h9.61v3.67c.85-1.3,1.94-2.29,3.26-2.99,1.32-.7,2.86-1.04,4.62-1.04,1.88,0,3.31,.43,4.29,1.28,.99,.85,1.48,2.21,1.48,4.08v8.76Z"/></g><g><path class="b" d="M71.54,124.28c-1.08,0-1.62,.28-1.62,.83v8.77c0,.55,.54,.83,1.62,.83v1.48h-6.68v-1.48c.92,0,1.39-.28,1.39-.83v-3.85h-4.72v3.85c0,.55,.47,.83,1.4,.83v1.48h-6.66v-1.48c1.07,0,1.6-.28,1.6-.83v-8.77c0-.55-.53-.83-1.6-.83v-1.48h6.66v1.48c-.94,0-1.4,.28-1.4,.83v3.19h4.72v-3.19c0-.55-.46-.83-1.39-.83v-1.48h6.68v1.48Z"/><path class="b" d="M83.17,131.56c0,1.62-.45,2.85-1.35,3.68s-2.18,1.25-3.85,1.25c-.67,0-1.31-.07-1.92-.22s-1.14-.39-1.59-.75c-.46-.35-.82-.83-1.09-1.44-.27-.61-.41-1.38-.41-2.31,0-3.41,1.73-5.11,5.18-5.11,.68,0,1.33,.08,1.94,.23,.61,.15,1.15,.41,1.6,.78,.46,.37,.82,.87,1.08,1.5,.26,.63,.4,1.43,.4,2.39Zm-5.06-3.29c-.65,0-1.12,.23-1.43,.69-.31,.46-.46,1.23-.46,2.31,0,.74,.04,1.35,.11,1.83,.07,.47,.18,.85,.32,1.12s.33,.45,.55,.55c.22,.1,.49,.14,.8,.14,.7,0,1.18-.25,1.46-.76,.28-.5,.41-1.34,.41-2.5,0-.68-.04-1.24-.12-1.68-.08-.44-.19-.78-.34-1.03-.15-.25-.33-.43-.55-.52-.22-.1-.47-.14-.76-.14Z"/><path class="b" d="M102,133.9c0,.54,.49,.81,1.46,.81v1.48h-5.72v-1.48c.65,0,.97-.27,.97-.81v-2.83c0-.75-.08-1.3-.24-1.65-.16-.35-.41-.52-.74-.52-.44,0-.84,.19-1.21,.57-.36,.38-.66,.92-.89,1.64v2.8c0,.28,.09,.48,.26,.61,.17,.13,.41,.2,.69,.2v1.48h-5.22v-1.48c.65,0,.97-.27,.97-.81v-2.83c0-.75-.08-1.3-.24-1.65-.16-.35-.41-.52-.76-.52-.45,0-.86,.19-1.23,.57-.36,.38-.65,.92-.87,1.64v2.8c0,.54,.32,.81,.97,.81v1.48h-5.71v-1.48c.96,0,1.44-.27,1.44-.81v-4.63c0-.54-.47-.81-1.42-.81v-1.44h4.72v1.85c.36-.61,.84-1.1,1.44-1.48,.6-.37,1.31-.56,2.16-.56,.72,0,1.33,.17,1.84,.51,.5,.34,.81,.86,.92,1.56,.82-1.38,2.02-2.07,3.62-2.07,.84,0,1.51,.21,2.02,.64,.51,.43,.77,1.1,.77,2.04v4.38Z"/><path class="b" d="M108.17,131.63c.02,1.09,.21,1.91,.56,2.46,.35,.55,.9,.82,1.66,.82,.58,0,1.09-.15,1.56-.46,.46-.31,.77-.77,.93-1.4l1.51,.16c-.08,.42-.23,.83-.44,1.22s-.49,.74-.84,1.04-.77,.55-1.27,.74c-.5,.19-1.07,.28-1.72,.28-.68,0-1.34-.08-1.97-.23-.63-.16-1.19-.42-1.67-.8-.48-.38-.86-.88-1.14-1.5s-.42-1.41-.42-2.36c0-.76,.11-1.44,.33-2.04s.55-1.12,.98-1.56,.96-.76,1.58-.99c.62-.23,1.34-.34,2.16-.34,1.61,0,2.8,.4,3.57,1.19,.77,.79,1.16,2.05,1.16,3.78h-6.53Zm3.78-1.24c0-.3-.04-.6-.11-.9s-.18-.57-.32-.8c-.14-.23-.33-.42-.56-.57-.23-.14-.5-.22-.83-.22-.54,0-.98,.2-1.31,.59s-.54,1.03-.61,1.89h3.74Z"/><path class="b" d="M129.34,124.28c-1.07,0-1.6,.28-1.6,.83v8.77c0,.55,.53,.83,1.6,.83v1.48h-6.88v-1.48c1.08,0,1.62-.28,1.62-.83v-8.77c0-.55-.54-.83-1.62-.83v-1.48h6.88v1.48Z"/><path class="b" d="M142.55,133.9c0,.54,.52,.81,1.55,.81v1.48h-5.87v-1.48c.68,0,1.03-.27,1.03-.81v-2.83c0-.75-.1-1.3-.31-1.65s-.49-.52-.86-.52c-.5,0-.97,.2-1.4,.59-.43,.4-.75,.93-.95,1.62v2.8c0,.54,.33,.81,1.01,.81v1.48h-5.83v-1.48c1.02,0,1.53-.27,1.53-.81v-4.63c0-.54-.5-.81-1.51-.81v-1.44h4.81v1.84c.43-.65,.97-1.15,1.63-1.49s1.43-.52,2.31-.52c.94,0,1.65,.21,2.15,.64,.49,.43,.74,1.1,.74,2.04v4.38Z"/><path class="b" d="M153.84,130.17l-1.46,.13c-.16-.72-.5-1.23-1.04-1.54-.53-.31-1.17-.46-1.9-.46-.44,0-.79,.07-1.04,.22-.25,.15-.37,.35-.37,.6,0,.31,.16,.55,.47,.7,.31,.16,.7,.29,1.17,.4s.98,.22,1.53,.32c.55,.11,1.06,.27,1.53,.49,.47,.22,.86,.51,1.17,.88,.31,.37,.47,.87,.47,1.49,0,.49-.1,.92-.29,1.28-.19,.36-.45,.66-.77,.9-.32,.24-.69,.42-1.11,.53s-.85,.17-1.3,.17c-.84,0-1.49-.06-1.94-.17s-.83-.25-1.12-.4l-.25-.11c-.08-.04-.17-.05-.25-.05-.23,0-.37,.21-.43,.63h-1.46v-3.26c.24-.02,.48-.04,.72-.05,.24-.01,.48-.02,.72-.04,.07,.32,.22,.61,.44,.86,.22,.25,.5,.46,.82,.64,.32,.17,.68,.31,1.07,.4,.39,.09,.78,.14,1.18,.14,.43,0,.77-.09,1.01-.27,.24-.18,.36-.41,.36-.69s-.11-.5-.32-.65c-.22-.14-.5-.26-.86-.34s-.77-.16-1.23-.23c-.46-.07-.93-.17-1.41-.31-.9-.24-1.54-.59-1.92-1.04-.38-.45-.57-1.04-.57-1.76,0-.83,.29-1.5,.86-2,.58-.5,1.39-.76,2.45-.76,.43,0,.82,.04,1.17,.12,.35,.08,.65,.17,.91,.28s.48,.2,.67,.28c.19,.08,.33,.12,.44,.12,.14,0,.25-.04,.33-.14,.08-.09,.14-.24,.19-.46h1.35v3.15Z"/><path class="b" d="M159.62,128.51c.3-.61,.76-1.06,1.38-1.36,.62-.29,1.33-.44,2.12-.44,.57,0,1.11,.09,1.62,.27,.5,.18,.94,.47,1.3,.86s.66,.9,.87,1.52c.22,.62,.32,1.37,.32,2.24s-.12,1.66-.35,2.29c-.23,.62-.55,1.13-.96,1.52-.41,.39-.89,.68-1.44,.85-.55,.18-1.14,.27-1.76,.27-.54,0-1.04-.07-1.49-.21-.46-.14-.83-.34-1.11-.62v2.47c0,.54,.64,.81,1.93,.81v1.44h-6.77v-1.44c1.03,0,1.55-.27,1.55-.81v-8.87c0-.55-.52-.83-1.55-.83v-1.46h4.21l.13,1.49Zm2.23,.07c-.74,0-1.26,.26-1.55,.78s-.43,1.31-.43,2.37,.14,1.85,.43,2.38c.29,.53,.8,.79,1.55,.79s1.29-.26,1.61-.79c.32-.53,.48-1.32,.48-2.38s-.16-1.85-.48-2.37c-.32-.52-.86-.78-1.61-.78Z"/><path class="b" d="M171.95,131.63c.02,1.09,.21,1.91,.56,2.46,.35,.55,.9,.82,1.66,.82,.58,0,1.09-.15,1.56-.46,.46-.31,.77-.77,.93-1.4l1.51,.16c-.08,.42-.23,.83-.44,1.22s-.49,.74-.84,1.04-.77,.55-1.27,.74c-.5,.19-1.07,.28-1.72,.28-.68,0-1.34-.08-1.97-.23-.63-.16-1.19-.42-1.67-.8s-.86-.88-1.14-1.5c-.28-.62-.42-1.41-.42-2.36,0-.76,.11-1.44,.33-2.04,.22-.61,.55-1.12,.98-1.56s.96-.76,1.58-.99c.62-.23,1.34-.34,2.16-.34,1.61,0,2.8,.4,3.57,1.19,.77,.79,1.16,2.05,1.16,3.78h-6.53Zm3.78-1.24c0-.3-.04-.6-.11-.9s-.18-.57-.32-.8c-.14-.23-.33-.42-.56-.57-.23-.14-.5-.22-.83-.22-.54,0-.98,.2-1.31,.59s-.54,1.03-.61,1.89h3.74Z"/><path class="b" d="M189.39,133.05c-.07,.42-.2,.83-.4,1.24-.19,.41-.45,.77-.78,1.1-.33,.32-.74,.59-1.22,.79-.49,.2-1.06,.31-1.72,.31-.78,0-1.5-.09-2.15-.28-.65-.19-1.21-.47-1.68-.86s-.83-.89-1.09-1.49c-.26-.61-.39-1.33-.39-2.19,0-.73,.11-1.4,.32-2.02,.22-.61,.54-1.14,.97-1.58,.43-.44,.97-.79,1.6-1.03s1.37-.37,2.21-.37c.61,0,1.18,.06,1.69,.18,.52,.12,.96,.3,1.34,.53s.67,.53,.88,.88c.21,.35,.32,.77,.32,1.23,0,.42-.12,.78-.35,1.07-.23,.29-.6,.44-1.11,.44-.46,0-.8-.12-1.04-.36-.23-.24-.35-.53-.35-.86,0-.3,.1-.57,.31-.81,.21-.24,.48-.37,.82-.4-.34-.44-.94-.67-1.82-.67-.76,0-1.37,.29-1.84,.86-.47,.58-.71,1.42-.71,2.54,0,1.27,.21,2.19,.62,2.75,.41,.56,1.02,.85,1.81,.85,.55,0,1.04-.16,1.46-.47,.42-.31,.68-.82,.77-1.51l1.51,.13Z"/><path class="b" d="M195.63,127.02h2.36l-.09,1.53c-.34-.07-.69-.12-1.06-.15-.37-.03-.77-.04-1.21-.04v5.74c0,.28,.05,.48,.15,.61,.1,.13,.28,.2,.53,.2s.43-.07,.52-.22,.14-.34,.14-.59v-.86h1.06v.56c0,.38-.04,.73-.13,1.04-.09,.31-.24,.57-.45,.79s-.49,.39-.83,.51c-.34,.12-.76,.18-1.25,.18-1.12,0-1.9-.24-2.36-.71s-.68-1.12-.68-1.94v-5.31h-1.55v-1.1c.32-.02,.64-.07,.96-.14,.32-.07,.6-.2,.85-.38,.25-.18,.44-.43,.59-.76,.15-.32,.22-.74,.22-1.26v-.4l2.21-.13v2.83Z"/><path class="b" d="M204.16,133.9c-.02,.54,.49,.81,1.53,.81v1.48h-6.35v-1.48c1.02,0,1.53-.27,1.53-.81v-4.61c0-.55-.51-.83-1.53-.83v-1.44h4.82v6.88Zm.16-9.79c0,.25-.05,.49-.14,.71-.1,.22-.22,.42-.39,.58-.16,.17-.35,.3-.58,.4-.22,.1-.46,.14-.71,.14s-.49-.05-.7-.14c-.22-.1-.41-.23-.58-.4-.17-.17-.3-.36-.4-.58-.1-.22-.14-.46-.14-.71s.05-.49,.14-.7c.1-.22,.23-.41,.4-.57,.17-.16,.36-.29,.58-.39s.45-.14,.7-.14,.49,.05,.71,.14c.22,.1,.41,.23,.58,.39,.16,.16,.29,.35,.39,.57,.1,.22,.14,.45,.14,.7Z"/><path class="b" d="M217.36,131.56c0,1.62-.45,2.85-1.35,3.68-.9,.83-2.18,1.25-3.85,1.25-.67,0-1.31-.07-1.92-.22-.61-.14-1.14-.39-1.59-.75-.46-.35-.82-.83-1.09-1.44-.27-.61-.4-1.38-.4-2.31,0-3.41,1.73-5.11,5.18-5.11,.68,0,1.33,.08,1.94,.23,.61,.15,1.14,.41,1.6,.78,.46,.37,.82,.87,1.08,1.5,.26,.63,.4,1.43,.4,2.39Zm-5.06-3.29c-.65,0-1.12,.23-1.43,.69-.31,.46-.46,1.23-.46,2.31,0,.74,.04,1.35,.11,1.83,.07,.47,.18,.85,.32,1.12,.14,.27,.33,.45,.55,.55,.22,.1,.49,.14,.8,.14,.7,0,1.18-.25,1.46-.76,.28-.5,.41-1.34,.41-2.5,0-.68-.04-1.24-.12-1.68-.08-.44-.19-.78-.34-1.03s-.33-.43-.55-.52c-.22-.1-.47-.14-.76-.14Z"/><path class="b" d="M230.34,133.9c0,.54,.52,.81,1.55,.81v1.48h-5.87v-1.48c.68,0,1.03-.27,1.03-.81v-2.83c0-.75-.1-1.3-.3-1.65-.21-.35-.49-.52-.87-.52-.5,0-.97,.2-1.4,.59-.43,.4-.75,.93-.96,1.62v2.8c0,.54,.34,.81,1.01,.81v1.48h-5.83v-1.48c1.02,0,1.53-.27,1.53-.81v-4.63c0-.54-.51-.81-1.51-.81v-1.44h4.81v1.84c.43-.65,.97-1.15,1.63-1.49,.66-.35,1.43-.52,2.31-.52,.94,0,1.65,.21,2.14,.64,.49,.43,.74,1.1,.74,2.04v4.38Z"/><path class="b" d="M254.69,124.28c-1.08,0-1.62,.28-1.62,.83v8.77c0,.55,.54,.83,1.62,.83v1.48h-6.68v-1.48c.92,0,1.39-.28,1.39-.83v-3.85h-4.72v3.85c0,.55,.47,.83,1.4,.83v1.48h-6.66v-1.48c1.07,0,1.6-.28,1.6-.83v-8.77c0-.55-.53-.83-1.6-.83v-1.48h6.66v1.48c-.94,0-1.4,.28-1.4,.83v3.19h4.72v-3.19c0-.55-.46-.83-1.39-.83v-1.48h6.68v1.48Z"/><path class="b" d="M265.65,134.15c0,.5,.17,.76,.52,.76,.17,0,.29-.08,.38-.23s.13-.33,.13-.53v-.92h1.04v.58c0,.5-.07,.92-.22,1.23-.15,.32-.35,.57-.58,.77-.24,.19-.51,.32-.81,.4-.3,.07-.6,.11-.9,.11-.74,0-1.29-.17-1.65-.51-.35-.34-.59-.78-.71-1.3-.11,.26-.26,.52-.47,.76-.2,.24-.46,.45-.76,.64s-.65,.33-1.04,.44c-.4,.11-.84,.16-1.33,.16-1.12,0-1.93-.23-2.44-.69-.51-.46-.77-1.08-.77-1.84,0-.48,.08-.88,.25-1.19s.4-.57,.69-.77c.29-.2,.64-.35,1.05-.47s.85-.22,1.33-.32c.48-.1,.99-.21,1.53-.31,.54-.11,1.09-.25,1.64-.43v-.56c0-.25-.04-.5-.11-.74-.07-.24-.19-.45-.34-.64-.16-.19-.36-.34-.6-.45s-.54-.17-.87-.17c-.5,0-.92,.04-1.26,.13s-.64,.23-.9,.4c.29,.02,.54,.11,.75,.25,.21,.14,.31,.38,.31,.7,0,.37-.12,.67-.37,.89-.25,.22-.61,.33-1.09,.33-.96,0-1.44-.47-1.44-1.4,0-.34,.1-.66,.3-.97,.2-.31,.49-.58,.87-.82,.38-.23,.84-.42,1.39-.56s1.18-.21,1.89-.21c.55,0,1.11,.05,1.66,.15,.55,.1,1.04,.28,1.48,.52,.43,.25,.78,.58,1.05,1.01s.41,.96,.41,1.61v4.19Zm-3.1-2.93c-.56,.24-1.06,.44-1.5,.59-.44,.16-.81,.31-1.12,.47-.3,.16-.54,.33-.69,.53-.16,.2-.23,.47-.23,.8,0,.31,.11,.57,.32,.77,.21,.2,.56,.31,1.03,.31,.5,0,.95-.13,1.32-.4,.38-.26,.67-.59,.87-.99v-2.09Z"/><path class="b" d="M285.56,128.46c-.7,0-1.12,.2-1.26,.61l-2.46,7.11h-3.06l-2.14-5.24-2.25,5.24h-3.06l-2.32-7.09c-.14-.42-.54-.63-1.17-.63v-1.44h5.56v1.44h-.79c-.32,0-.49,.14-.49,.43,0,.06,.02,.13,.04,.22,.03,.08,.06,.19,.1,.31l1.55,4.91,2.23-5.09c.05-.08,.07-.2,.07-.36,0-.13-.05-.23-.16-.31-.11-.07-.25-.11-.43-.11h-.67v-1.44h5.35v1.44h-.83c-.29,0-.43,.11-.43,.34,0,.06,.03,.17,.09,.32l2.09,5.2,1.78-5.09c.04-.11,.05-.21,.05-.31,0-.16-.06-.27-.19-.35-.12-.08-.29-.12-.49-.12h-.67v-1.44h3.96v1.44Z"/><path class="b" d="M295.62,134.15c0,.5,.17,.76,.52,.76,.17,0,.29-.08,.38-.23s.12-.33,.12-.53v-.92h1.04v.58c0,.5-.08,.92-.22,1.23-.15,.32-.35,.57-.59,.77s-.51,.32-.81,.4c-.3,.07-.6,.11-.9,.11-.74,0-1.29-.17-1.65-.51-.35-.34-.59-.78-.71-1.3-.11,.26-.26,.52-.47,.76-.21,.24-.46,.45-.76,.64-.3,.19-.65,.33-1.04,.44s-.84,.16-1.33,.16c-1.12,0-1.93-.23-2.44-.69-.51-.46-.76-1.08-.76-1.84,0-.48,.08-.88,.25-1.19s.4-.57,.69-.77c.29-.2,.64-.35,1.05-.47,.41-.11,.85-.22,1.33-.32,.48-.1,.99-.21,1.53-.31s1.09-.25,1.64-.43v-.56c0-.25-.04-.5-.11-.74-.07-.24-.19-.45-.34-.64-.16-.19-.36-.34-.6-.45-.25-.11-.54-.17-.87-.17-.51,0-.93,.04-1.26,.13s-.63,.23-.9,.4c.29,.02,.54,.11,.75,.25,.21,.14,.31,.38,.31,.7,0,.37-.12,.67-.37,.89-.25,.22-.61,.33-1.09,.33-.96,0-1.44-.47-1.44-1.4,0-.34,.1-.66,.3-.97,.2-.31,.48-.58,.86-.82,.38-.23,.84-.42,1.39-.56,.55-.14,1.18-.21,1.89-.21,.55,0,1.1,.05,1.66,.15,.55,.1,1.04,.28,1.48,.52,.43,.25,.78,.58,1.05,1.01,.27,.43,.4,.96,.4,1.61v4.19Zm-3.1-2.93c-.56,.24-1.06,.44-1.5,.59-.44,.16-.81,.31-1.12,.47-.31,.16-.54,.33-.69,.53s-.23,.47-.23,.8c0,.31,.11,.57,.32,.77,.22,.2,.56,.31,1.03,.31,.5,0,.94-.13,1.32-.4,.38-.26,.67-.59,.87-.99v-2.09Z"/><path class="b" d="M303.76,133.9c-.03,.54,.48,.81,1.53,.81v1.48h-6.35v-1.48c1.02,0,1.53-.27,1.53-.81v-4.61c0-.55-.51-.83-1.53-.83v-1.44h4.82v6.88Zm.16-9.79c0,.25-.05,.49-.14,.71-.1,.22-.22,.42-.39,.58-.16,.17-.36,.3-.58,.4-.22,.1-.46,.14-.71,.14s-.49-.05-.7-.14c-.21-.1-.41-.23-.58-.4-.17-.17-.3-.36-.39-.58-.1-.22-.14-.46-.14-.71s.05-.49,.14-.7c.1-.22,.23-.41,.39-.57,.17-.16,.36-.29,.58-.39,.22-.1,.45-.14,.7-.14s.49,.05,.71,.14c.22,.1,.41,.23,.58,.39,.16,.16,.29,.35,.39,.57,.1,.22,.14,.45,.14,.7Z"/><path class="b" d="M311.5,133.9c-.03,.54,.48,.81,1.53,.81v1.48h-6.35v-1.48c1.02,0,1.53-.27,1.53-.81v-4.61c0-.55-.51-.83-1.53-.83v-1.44h4.82v6.88Zm.16-9.79c0,.25-.05,.49-.14,.71-.1,.22-.22,.42-.39,.58-.16,.17-.36,.3-.58,.4-.22,.1-.46,.14-.71,.14s-.49-.05-.7-.14c-.21-.1-.41-.23-.58-.4-.17-.17-.3-.36-.39-.58-.1-.22-.14-.46-.14-.71s.05-.49,.14-.7c.1-.22,.23-.41,.39-.57,.17-.16,.36-.29,.58-.39,.22-.1,.45-.14,.7-.14s.49,.05,.71,.14c.22,.1,.41,.23,.58,.39,.16,.16,.29,.35,.39,.57,.1,.22,.14,.45,.14,.7Z"/></g></svg>